<svg xmlns="http://www.w3.org/2000/svg" viewBox="0 0 140.9 118.8"><defs><style>.cls-1{fill:#42a5f5;fill-opacity:0;stroke-width:7px;}.cls-1,.cls-2{stroke:#000;stroke-miterlimit:10;}.cls-2{stroke-width:3px;}</style></defs><g id="图层_2" data-name="图层 2"><g id="图层_1-2" data-name="图层 1"><path class="cls-1" d="M128.5,28.7v6.8l-7.4-3.6L83.7,66.3,62.8,50.5l-8.7,5L74.7,74.4l-20.6,19,8.7,5L83.7,82.6l22.7,20.9H16A12.5,12.5,0,0,1,3.5,91V16A12.5,12.5,0,0,1,16,3.5H53.5L66,16h50A12.81,12.81,0,0,1,128.5,28.7Z"/><polygon class="cls-1" points="121.1 54.6 121.1 94.5 94.6 74.6 121.1 54.6"/><path class="cls-2" d="M128.5,35.5l-7.4-3.6L83.7,66.3,62.8,50.5l-8.7,5L74.7,74.4l-20.6,19,8.7,5L83.7,82.6l22.7,20.9L121.1,117l18.3-8.9V40.8ZM94.6,74.6l26.5-20v40Z"/></g></g></svg>