<svg xmlns="http://www.w3.org/2000/svg" viewBox="0 0 141.5 119.39"><defs><style>.cls-1{fill:#42a5f5;fill-opacity:0;stroke-width:7px;}.cls-1,.cls-2{stroke:#fff;stroke-miterlimit:10;}.cls-2{fill:#fff;stroke-width:4px;}</style></defs><g id="图层_2" data-name="图层 2"><g id="图层_1-2" data-name="图层 1"><polygon class="cls-1" points="94.7 74.4 121.2 54.4 121.2 94.4 94.7 74.4"/><path class="cls-1" d="M128.6,28.5v6.9l-7.4-3.6L83.8,66.2l-21-15.8-8.6,5L74.8,74.3,54.2,93.4l8.6,5L83.7,82.6l22.7,20.9H16A12.5,12.5,0,0,1,3.5,91V16A12.5,12.5,0,0,1,16,3.5H53.5L66,16h50A12.53,12.53,0,0,1,128.6,28.5Z"/><path class="cls-2" d="M128.6,35.4l-7.4-3.6L83.8,66.2l-21-15.8-8.6,5L74.8,74.3,54.2,93.4l8.6,5L83.7,82.6l22.7,20.9L121.2,117l18.3-8.9V40.7Zm-33.9,39,26.5-20v40Z"/></g></g></svg>